<svg width="41" height="41" viewBox="0 0 41 41" fill="none" xmlns="http://www.w3.org/2000/svg">
<circle cx="20.9824" cy="20.1534" r="20" fill="#0062D6"/>
<path fill-rule="evenodd" clip-rule="evenodd" d="M18.6897 15.0222C18.6828 15.0179 18.6762 15.0134 18.6693 15.0091C17.7371 14.4245 16.6353 14.0861 15.4562 14.0861C12.1121 14.0861 9.3916 16.8066 9.3916 20.1506C9.3916 23.4947 12.1121 26.2152 15.4562 26.2152C16.6271 26.2152 17.7216 25.8815 18.6497 25.3044C18.6603 25.2977 18.6818 25.2842 18.6818 25.2842L17.529 23.1755C17.529 23.1755 17.5044 23.1924 17.492 23.2007C16.9091 23.591 16.2087 23.8188 15.4562 23.8188C13.4335 23.8188 11.7879 22.1733 11.7879 20.1506C11.7879 18.128 13.4335 16.4824 15.4562 16.4824C16.2185 16.4824 16.9275 16.7162 17.5146 17.116C17.5159 17.1167 17.5172 17.1176 17.5182 17.1185L18.6897 15.0222Z" fill="white"/>
<path fill-rule="evenodd" clip-rule="evenodd" d="M31.8078 20.1506C31.8078 16.8066 29.0873 14.0861 25.7433 14.0861C22.3992 14.0861 19.6787 16.8066 19.6787 20.1506C19.6787 23.4947 22.3992 26.2152 25.7433 26.2152C29.0873 26.2152 31.8078 23.4947 31.8078 20.1506ZM29.4115 20.1506C29.4115 22.1733 27.7659 23.8188 25.7433 23.8188C23.7206 23.8188 22.0751 22.1733 22.0751 20.1506C22.0751 18.128 23.7206 16.4824 25.7433 16.4824C27.7659 16.4824 29.4115 18.128 29.4115 20.1506Z" fill="white"/>
</svg>
